<?xml version="1.0" encoding="utf-8"?>
<!-- Generator: Adobe Illustrator 24.1.1, SVG Export Plug-In . SVG Version: 6.00 Build 0)  -->
<svg version="1.1" id="Layer_1" xmlns="http://www.w3.org/2000/svg" xmlns:xlink="http://www.w3.org/1999/xlink" x="0px" y="0px"
	 viewBox="0 0 512 512" style="enable-background:new 0 0 512 512;" xml:space="preserve" fill="currentColor">
<g id="XMLID_1_">
	<path id="XMLID_3_" d="M235.5,212.2c1.9-0.9,3.7-0.9,6.5-0.9c0.9,0,2.8,0,5.6,0c2.8,0,7.4,0.9,13,0.9l-23.3-70.7
		c-6.5-17.7-11.2-29.8-14.9-35.4c-3.7-5.6-7.4-8.4-11.2-8.4c-2.8,0-5.6,0.9-7.4,3.7c-1.9,2.8-2.8,5.6-2.8,10.2
		c0,7.4,2.8,19.5,8.4,36.3c5.6,17.7,13,40,24.2,68C232.7,214.1,234.6,213.2,235.5,212.2z"/>
	<path id="XMLID_4_" d="M263.4,304.4c3.7-4.7,7.4-8.4,11.2-12.1c3.7-3.7,8.4-7.4,13-10.2c-6.5,0-13-0.9-18.6-1.9
		c-5.6-0.9-11.2-2.8-16.8-4.7c2.8,4.7,4.7,9.3,6.5,14.9C260.7,295.1,262.5,299.8,263.4,304.4z"/>
	<path id="XMLID_5_" d="M345.4,245.8c-6.5-5.6-18.6-10.2-36.3-14c-17.7-3.7-37.2-6.5-56.8-6.5c-5.6,0-9.3,0.9-11.2,2.8
		c-1.9,1.9-3.7,4.7-3.7,9.3c0,10.2,5.6,17.7,17.7,22.3c11.2,4.7,29.8,6.5,55.9,6.5h9.3c1.9,0,3.7,0.9,5.6,2.8
		c0.9,1.9,1.9,3.7,2.8,7.4c-2.8,2.8-7.4,5.6-15.8,8.4c-8.4,2.8-14,6.5-18.6,9.3c-9.3,6.5-16.8,14.9-22.3,24.2
		c-5.6,9.3-8.4,17.7-8.4,26.1c0,4.7,0.9,11.2,3.7,17.7c2.8,7.4,3.7,11.2,3.7,13v1.9v1.9c-6.5,0-12.1-4.7-15.8-12.1
		c-3.7-7.4-5.6-16.8-5.6-29.8v-1.9c-0.9,0.9-2.8,1.9-3.7,1.9c-0.9,0-2.8,0.9-3.7,0.9c-0.9,0-2.8,0-3.7,0c-0.9,0-2.8-0.9-3.7-0.9
		c0,1.9,0.9,3.7,0.9,4.7c0,1.9,0,2.8,0,3.7c0,5.6-1.9,10.2-6.5,14.9c-4.7,3.7-9.3,5.6-15.8,5.6c-9.3,0-19.5-4.7-28.9-14
		c-10.2-9.3-14.9-18.6-14.9-27c0-1.9,0-2.8,0.9-4.7c0-0.9,0.9-2.8,1.9-3.7c1.9,2.8,4.7,6.5,9.3,11.2c10.2,14,19.5,20.5,27.9,20.5
		c2.8,0,5.6-0.9,7.4-2.8c1.9-1.9,3.7-3.7,3.7-5.6c0-1.9-1.9-6.5-4.7-11.2c-2.8-5.6-7.4-11.2-12.1-17.7c-6.5-7.4-11.2-13-14.9-16.8
		c-3.7-3.7-7.4-5.6-9.3-5.6c-5.6,0-10.2,2.8-14.9,8.4c-4.7,5.6-6.5,12.1-6.5,20.5c0,6.5,1.9,13,4.7,20.5c2.8,7.4,7.4,15.8,14,23.3
		c9.3,12.1,20.5,21.4,33.5,27.9c13,6.5,27.9,9.3,43.8,9.3c29.8,0,54-11.2,74.5-33.5c19.5-22.3,29.8-49.3,29.8-82.9
		c0-10.2-0.9-18.6-1.9-24.2C351.9,253.2,349.1,248.6,345.4,245.8z"/>
	<path id="XMLID_6_" d="M206.7,294.2c6.5,9.3,13,15.8,18.6,21.4c5.6,4.7,10.2,7.4,14,7.4c2.8,0,4.7-0.9,7.4-3.7
		c1.9-2.8,2.8-4.7,2.8-7.4c0-2.8-1.9-9.3-6.5-20.5c-3.7-10.2-9.3-20.5-15.8-30.7c-4.7-7.4-9.3-13-13-16.8c-4.7-3.7-8.4-5.6-12.1-5.6
		c-2.8,0-6.5,1.9-10.2,5.6c-3.7,3.7-5.6,7.4-5.6,11.2c0,3.7,1.9,9.3,5.6,16.8C194.6,278.3,200.1,286.7,206.7,294.2z"/>
	<path id="XMLID_9_" d="M256,0C114.5,0,0,114.5,0,256s114.5,256,256,256s256-114.5,256-256S397.5,0,256,0z M337,377.9
		c-23.3,24.2-52.1,36.3-88.4,36.3c-14,0-27.9-2.8-41-7.4c-13-4.7-25.1-12.1-34.4-21.4c-11.2-10.2-19.5-20.5-24.2-31.7
		c-5.6-11.2-8.4-22.3-8.4-34.4c0-13,2.8-23.3,8.4-30.7c5.6-7.4,14.9-12.1,27-14.9c-1.9-5.6-3.7-10.2-4.7-13
		c-0.9-3.7-1.9-6.5-1.9-8.4c0-6.5,3.7-14,11.2-21.4s14-10.2,20.5-10.2c2.8,0,5.6,0.9,8.4,1.9c2.8,0.9,6.5,2.8,10.2,4.7
		c-12.1-33.5-20.5-58.6-25.1-76.3c-5.6-17.7-8.4-30.7-8.4-37.2c0-9.3,2.8-16.8,7.4-22.3c4.7-5.6,11.2-8.4,19.5-8.4
		c14,0,32.6,31.7,54,95.9c3.7,11.2,6.5,19.5,8.4,25.1c1.9-4.7,3.7-11.2,7.4-20.5c21.4-63.3,41-95,56.8-95c7.4,0,14,2.8,18.6,7.4
		c4.7,5.6,6.5,12.1,6.5,21.4c0,6.5-2.8,18.6-7.4,36.3c-4.7,17.7-13,41-23.3,69.8c14,2.8,23.3,8.4,28.9,17.7
		c5.6,9.3,8.4,23.3,8.4,41.9C371.4,322.1,360.3,353.7,337,377.9z"/>
	<path id="XMLID_10_" d="M341.6,152.7c5.6-17.7,8.4-28.9,8.4-33.5c0-4.7-0.9-7.4-2.8-10.2c-1.9-2.8-4.7-3.7-7.4-3.7
		c-4.7,0-8.4,3.7-13,10.2c-4.7,7.4-9.3,18.6-14.9,34.4L289.5,216l28.9,4.7C327.7,192.7,336.1,170.4,341.6,152.7z"/>
</g>
</svg>
